# xmcd
#
# Track frame offsets:
#	150
#	26396
#	66155
#	100295
#	132092
#	178215
#
# Disc length: 3183 seconds
#
# Revision: 0
# Processed by: cddbd v1.5.2PL0 Copyright (c) Steve Scherf et al.
# Submitted via: dBpowerAMP V4.0
#
DISCID=4c0c6d06
DTITLE=C.S. Forester - African Queen
DYEAR=2007
DGENRE=Lesung
TTITLE0=CD3 01 Auf dem Bora
TTITLE1=CD3 02 Hitze über dem Fluß
TTITLE2=CD3 03 Im Flußdelta
TTITLE3=CD3 04 Im Schilf
TTITLE4=CD3 05 Blutegel
TTITLE5=CD3 06 Im Mangrovendickicht
EXTD=
EXTT0=
EXTT1=
EXTT2=
EXTT3=
EXTT4=
EXTT5=
PLAYORDER=
